<?xml version="1.0" encoding="UTF-8"?>
<!-- SPDX-FileCopyrightText: 2026 Shenzhen Tange Intelligent Technology Co., Ltd. <https://tange.ai> -->
<!-- SPDX-License-Identifier: Apache-2.0 -->
<svg xmlns="http://www.w3.org/2000/svg" width="520" height="264" viewBox="-1 -1 130 66" role="img" aria-label="NETWORK NET RETRY">
  <title>NETWORK NET RETRY</title>
  <rect x="-1" y="-1" width="130" height="66" rx="2" fill="#101820"/>
  <rect width="128" height="64" fill="#dffbff"/>
  <path d="M43 0h1v1h-1zM47 0h1v1h-1zM49 0h1v1h-1zM50 0h1v1h-1zM51 0h1v1h-1zM52 0h1v1h-1zM53 0h1v1h-1zM55 0h1v1h-1zM56 0h1v1h-1zM57 0h1v1h-1zM58 0h1v1h-1zM59 0h1v1h-1zM61 0h1v1h-1zM65 0h1v1h-1zM68 0h1v1h-1zM69 0h1v1h-1zM70 0h1v1h-1zM73 0h1v1h-1zM74 0h1v1h-1zM75 0h1v1h-1zM76 0h1v1h-1zM79 0h1v1h-1zM83 0h1v1h-1zM43 1h1v1h-1zM47 1h1v1h-1zM49 1h1v1h-1zM57 1h1v1h-1zM61 1h1v1h-1zM65 1h1v1h-1zM67 1h1v1h-1zM71 1h1v1h-1zM73 1h1v1h-1zM77 1h1v1h-1zM79 1h1v1h-1zM82 1h1v1h-1zM43 2h1v1h-1zM44 2h1v1h-1zM47 2h1v1h-1zM49 2h1v1h-1zM57 2h1v1h-1zM61 2h1v1h-1zM65 2h1v1h-1zM67 2h1v1h-1zM71 2h1v1h-1zM73 2h1v1h-1zM77 2h1v1h-1zM79 2h1v1h-1zM81 2h1v1h-1zM43 3h1v1h-1zM45 3h1v1h-1zM47 3h1v1h-1zM49 3h1v1h-1zM50 3h1v1h-1zM51 3h1v1h-1zM52 3h1v1h-1zM57 3h1v1h-1zM61 3h1v1h-1zM63 3h1v1h-1zM65 3h1v1h-1zM67 3h1v1h-1zM71 3h1v1h-1zM73 3h1v1h-1zM74 3h1v1h-1zM75 3h1v1h-1zM76 3h1v1h-1zM79 3h1v1h-1zM80 3h1v1h-1zM43 4h1v1h-1zM46 4h1v1h-1zM47 4h1v1h-1zM49 4h1v1h-1zM57 4h1v1h-1zM61 4h1v1h-1zM63 4h1v1h-1zM65 4h1v1h-1zM67 4h1v1h-1zM71 4h1v1h-1zM73 4h1v1h-1zM75 4h1v1h-1zM79 4h1v1h-1zM81 4h1v1h-1zM43 5h1v1h-1zM47 5h1v1h-1zM49 5h1v1h-1zM57 5h1v1h-1zM61 5h1v1h-1zM62 5h1v1h-1zM64 5h1v1h-1zM65 5h1v1h-1zM67 5h1v1h-1zM71 5h1v1h-1zM73 5h1v1h-1zM76 5h1v1h-1zM79 5h1v1h-1zM82 5h1v1h-1zM43 6h1v1h-1zM47 6h1v1h-1zM49 6h1v1h-1zM50 6h1v1h-1zM51 6h1v1h-1zM52 6h1v1h-1zM53 6h1v1h-1zM57 6h1v1h-1zM61 6h1v1h-1zM65 6h1v1h-1zM68 6h1v1h-1zM69 6h1v1h-1zM70 6h1v1h-1zM73 6h1v1h-1zM77 6h1v1h-1zM79 6h1v1h-1zM83 6h1v1h-1zM10 20h1v1h-1zM11 20h1v1h-1zM18 20h1v1h-1zM19 20h1v1h-1zM22 20h1v1h-1zM23 20h1v1h-1zM24 20h1v1h-1zM25 20h1v1h-1zM26 20h1v1h-1zM27 20h1v1h-1zM28 20h1v1h-1zM29 20h1v1h-1zM30 20h1v1h-1zM31 20h1v1h-1zM34 20h1v1h-1zM35 20h1v1h-1zM36 20h1v1h-1zM37 20h1v1h-1zM38 20h1v1h-1zM39 20h1v1h-1zM40 20h1v1h-1zM41 20h1v1h-1zM42 20h1v1h-1zM43 20h1v1h-1zM58 20h1v1h-1zM59 20h1v1h-1zM60 20h1v1h-1zM61 20h1v1h-1zM62 20h1v1h-1zM63 20h1v1h-1zM64 20h1v1h-1zM65 20h1v1h-1zM70 20h1v1h-1zM71 20h1v1h-1zM72 20h1v1h-1zM73 20h1v1h-1zM74 20h1v1h-1zM75 20h1v1h-1zM76 20h1v1h-1zM77 20h1v1h-1zM78 20h1v1h-1zM79 20h1v1h-1zM82 20h1v1h-1zM83 20h1v1h-1zM84 20h1v1h-1zM85 20h1v1h-1zM86 20h1v1h-1zM87 20h1v1h-1zM88 20h1v1h-1zM89 20h1v1h-1zM90 20h1v1h-1zM91 20h1v1h-1zM94 20h1v1h-1zM95 20h1v1h-1zM96 20h1v1h-1zM97 20h1v1h-1zM98 20h1v1h-1zM99 20h1v1h-1zM100 20h1v1h-1zM101 20h1v1h-1zM106 20h1v1h-1zM107 20h1v1h-1zM114 20h1v1h-1zM115 20h1v1h-1zM10 21h1v1h-1zM11 21h1v1h-1zM18 21h1v1h-1zM19 21h1v1h-1zM22 21h1v1h-1zM23 21h1v1h-1zM24 21h1v1h-1zM25 21h1v1h-1zM26 21h1v1h-1zM27 21h1v1h-1zM28 21h1v1h-1zM29 21h1v1h-1zM30 21h1v1h-1zM31 21h1v1h-1zM34 21h1v1h-1zM35 21h1v1h-1zM36 21h1v1h-1zM37 21h1v1h-1zM38 21h1v1h-1zM39 21h1v1h-1zM40 21h1v1h-1zM41 21h1v1h-1zM42 21h1v1h-1zM43 21h1v1h-1zM58 21h1v1h-1zM59 21h1v1h-1zM60 21h1v1h-1zM61 21h1v1h-1zM62 21h1v1h-1zM63 21h1v1h-1zM64 21h1v1h-1zM65 21h1v1h-1zM70 21h1v1h-1zM71 21h1v1h-1zM72 21h1v1h-1zM73 21h1v1h-1zM74 21h1v1h-1zM75 21h1v1h-1zM76 21h1v1h-1zM77 21h1v1h-1zM78 21h1v1h-1zM79 21h1v1h-1zM82 21h1v1h-1zM83 21h1v1h-1zM84 21h1v1h-1zM85 21h1v1h-1zM86 21h1v1h-1zM87 21h1v1h-1zM88 21h1v1h-1zM89 21h1v1h-1zM90 21h1v1h-1zM91 21h1v1h-1zM94 21h1v1h-1zM95 21h1v1h-1zM96 21h1v1h-1zM97 21h1v1h-1zM98 21h1v1h-1zM99 21h1v1h-1zM100 21h1v1h-1zM101 21h1v1h-1zM106 21h1v1h-1zM107 21h1v1h-1zM114 21h1v1h-1zM115 21h1v1h-1zM10 22h1v1h-1zM11 22h1v1h-1zM18 22h1v1h-1zM19 22h1v1h-1zM22 22h1v1h-1zM23 22h1v1h-1zM38 22h1v1h-1zM39 22h1v1h-1zM58 22h1v1h-1zM59 22h1v1h-1zM66 22h1v1h-1zM67 22h1v1h-1zM70 22h1v1h-1zM71 22h1v1h-1zM86 22h1v1h-1zM87 22h1v1h-1zM94 22h1v1h-1zM95 22h1v1h-1zM102 22h1v1h-1zM103 22h1v1h-1zM106 22h1v1h-1zM107 22h1v1h-1zM114 22h1v1h-1zM115 22h1v1h-1zM10 23h1v1h-1zM11 23h1v1h-1zM18 23h1v1h-1zM19 23h1v1h-1zM22 23h1v1h-1zM23 23h1v1h-1zM38 23h1v1h-1zM39 23h1v1h-1zM58 23h1v1h-1zM59 23h1v1h-1zM66 23h1v1h-1zM67 23h1v1h-1zM70 23h1v1h-1zM71 23h1v1h-1zM86 23h1v1h-1zM87 23h1v1h-1zM94 23h1v1h-1zM95 23h1v1h-1zM102 23h1v1h-1zM103 23h1v1h-1zM106 23h1v1h-1zM107 23h1v1h-1zM114 23h1v1h-1zM115 23h1v1h-1zM10 24h1v1h-1zM11 24h1v1h-1zM12 24h1v1h-1zM13 24h1v1h-1zM18 24h1v1h-1zM19 24h1v1h-1zM22 24h1v1h-1zM23 24h1v1h-1zM38 24h1v1h-1zM39 24h1v1h-1zM58 24h1v1h-1zM59 24h1v1h-1zM66 24h1v1h-1zM67 24h1v1h-1zM70 24h1v1h-1zM71 24h1v1h-1zM86 24h1v1h-1zM87 24h1v1h-1zM94 24h1v1h-1zM95 24h1v1h-1zM102 24h1v1h-1zM103 24h1v1h-1zM108 24h1v1h-1zM109 24h1v1h-1zM112 24h1v1h-1zM113 24h1v1h-1zM10 25h1v1h-1zM11 25h1v1h-1zM12 25h1v1h-1zM13 25h1v1h-1zM18 25h1v1h-1zM19 25h1v1h-1zM22 25h1v1h-1zM23 25h1v1h-1zM38 25h1v1h-1zM39 25h1v1h-1zM58 25h1v1h-1zM59 25h1v1h-1zM66 25h1v1h-1zM67 25h1v1h-1zM70 25h1v1h-1zM71 25h1v1h-1zM86 25h1v1h-1zM87 25h1v1h-1zM94 25h1v1h-1zM95 25h1v1h-1zM102 25h1v1h-1zM103 25h1v1h-1zM108 25h1v1h-1zM109 25h1v1h-1zM112 25h1v1h-1zM113 25h1v1h-1zM10 26h1v1h-1zM11 26h1v1h-1zM14 26h1v1h-1zM15 26h1v1h-1zM18 26h1v1h-1zM19 26h1v1h-1zM22 26h1v1h-1zM23 26h1v1h-1zM24 26h1v1h-1zM25 26h1v1h-1zM26 26h1v1h-1zM27 26h1v1h-1zM28 26h1v1h-1zM29 26h1v1h-1zM38 26h1v1h-1zM39 26h1v1h-1zM58 26h1v1h-1zM59 26h1v1h-1zM60 26h1v1h-1zM61 26h1v1h-1zM62 26h1v1h-1zM63 26h1v1h-1zM64 26h1v1h-1zM65 26h1v1h-1zM70 26h1v1h-1zM71 26h1v1h-1zM72 26h1v1h-1zM73 26h1v1h-1zM74 26h1v1h-1zM75 26h1v1h-1zM76 26h1v1h-1zM77 26h1v1h-1zM86 26h1v1h-1zM87 26h1v1h-1zM94 26h1v1h-1zM95 26h1v1h-1zM96 26h1v1h-1zM97 26h1v1h-1zM98 26h1v1h-1zM99 26h1v1h-1zM100 26h1v1h-1zM101 26h1v1h-1zM110 26h1v1h-1zM111 26h1v1h-1zM10 27h1v1h-1zM11 27h1v1h-1zM14 27h1v1h-1zM15 27h1v1h-1zM18 27h1v1h-1zM19 27h1v1h-1zM22 27h1v1h-1zM23 27h1v1h-1zM24 27h1v1h-1zM25 27h1v1h-1zM26 27h1v1h-1zM27 27h1v1h-1zM28 27h1v1h-1zM29 27h1v1h-1zM38 27h1v1h-1zM39 27h1v1h-1zM58 27h1v1h-1zM59 27h1v1h-1zM60 27h1v1h-1zM61 27h1v1h-1zM62 27h1v1h-1zM63 27h1v1h-1zM64 27h1v1h-1zM65 27h1v1h-1zM70 27h1v1h-1zM71 27h1v1h-1zM72 27h1v1h-1zM73 27h1v1h-1zM74 27h1v1h-1zM75 27h1v1h-1zM76 27h1v1h-1zM77 27h1v1h-1zM86 27h1v1h-1zM87 27h1v1h-1zM94 27h1v1h-1zM95 27h1v1h-1zM96 27h1v1h-1zM97 27h1v1h-1zM98 27h1v1h-1zM99 27h1v1h-1zM100 27h1v1h-1zM101 27h1v1h-1zM110 27h1v1h-1zM111 27h1v1h-1zM10 28h1v1h-1zM11 28h1v1h-1zM16 28h1v1h-1zM17 28h1v1h-1zM18 28h1v1h-1zM19 28h1v1h-1zM22 28h1v1h-1zM23 28h1v1h-1zM38 28h1v1h-1zM39 28h1v1h-1zM58 28h1v1h-1zM59 28h1v1h-1zM62 28h1v1h-1zM63 28h1v1h-1zM70 28h1v1h-1zM71 28h1v1h-1zM86 28h1v1h-1zM87 28h1v1h-1zM94 28h1v1h-1zM95 28h1v1h-1zM98 28h1v1h-1zM99 28h1v1h-1zM110 28h1v1h-1zM111 28h1v1h-1zM10 29h1v1h-1zM11 29h1v1h-1zM16 29h1v1h-1zM17 29h1v1h-1zM18 29h1v1h-1zM19 29h1v1h-1zM22 29h1v1h-1zM23 29h1v1h-1zM38 29h1v1h-1zM39 29h1v1h-1zM58 29h1v1h-1zM59 29h1v1h-1zM62 29h1v1h-1zM63 29h1v1h-1zM70 29h1v1h-1zM71 29h1v1h-1zM86 29h1v1h-1zM87 29h1v1h-1zM94 29h1v1h-1zM95 29h1v1h-1zM98 29h1v1h-1zM99 29h1v1h-1zM110 29h1v1h-1zM111 29h1v1h-1zM10 30h1v1h-1zM11 30h1v1h-1zM18 30h1v1h-1zM19 30h1v1h-1zM22 30h1v1h-1zM23 30h1v1h-1zM38 30h1v1h-1zM39 30h1v1h-1zM58 30h1v1h-1zM59 30h1v1h-1zM64 30h1v1h-1zM65 30h1v1h-1zM70 30h1v1h-1zM71 30h1v1h-1zM86 30h1v1h-1zM87 30h1v1h-1zM94 30h1v1h-1zM95 30h1v1h-1zM100 30h1v1h-1zM101 30h1v1h-1zM110 30h1v1h-1zM111 30h1v1h-1zM10 31h1v1h-1zM11 31h1v1h-1zM18 31h1v1h-1zM19 31h1v1h-1zM22 31h1v1h-1zM23 31h1v1h-1zM38 31h1v1h-1zM39 31h1v1h-1zM58 31h1v1h-1zM59 31h1v1h-1zM64 31h1v1h-1zM65 31h1v1h-1zM70 31h1v1h-1zM71 31h1v1h-1zM86 31h1v1h-1zM87 31h1v1h-1zM94 31h1v1h-1zM95 31h1v1h-1zM100 31h1v1h-1zM101 31h1v1h-1zM110 31h1v1h-1zM111 31h1v1h-1zM10 32h1v1h-1zM11 32h1v1h-1zM18 32h1v1h-1zM19 32h1v1h-1zM22 32h1v1h-1zM23 32h1v1h-1zM24 32h1v1h-1zM25 32h1v1h-1zM26 32h1v1h-1zM27 32h1v1h-1zM28 32h1v1h-1zM29 32h1v1h-1zM30 32h1v1h-1zM31 32h1v1h-1zM38 32h1v1h-1zM39 32h1v1h-1zM58 32h1v1h-1zM59 32h1v1h-1zM66 32h1v1h-1zM67 32h1v1h-1zM70 32h1v1h-1zM71 32h1v1h-1zM72 32h1v1h-1zM73 32h1v1h-1zM74 32h1v1h-1zM75 32h1v1h-1zM76 32h1v1h-1zM77 32h1v1h-1zM78 32h1v1h-1zM79 32h1v1h-1zM86 32h1v1h-1zM87 32h1v1h-1zM94 32h1v1h-1zM95 32h1v1h-1zM102 32h1v1h-1zM103 32h1v1h-1zM110 32h1v1h-1zM111 32h1v1h-1zM10 33h1v1h-1zM11 33h1v1h-1zM18 33h1v1h-1zM19 33h1v1h-1zM22 33h1v1h-1zM23 33h1v1h-1zM24 33h1v1h-1zM25 33h1v1h-1zM26 33h1v1h-1zM27 33h1v1h-1zM28 33h1v1h-1zM29 33h1v1h-1zM30 33h1v1h-1zM31 33h1v1h-1zM38 33h1v1h-1zM39 33h1v1h-1zM58 33h1v1h-1zM59 33h1v1h-1zM66 33h1v1h-1zM67 33h1v1h-1zM70 33h1v1h-1zM71 33h1v1h-1zM72 33h1v1h-1zM73 33h1v1h-1zM74 33h1v1h-1zM75 33h1v1h-1zM76 33h1v1h-1zM77 33h1v1h-1zM78 33h1v1h-1zM79 33h1v1h-1zM86 33h1v1h-1zM87 33h1v1h-1zM94 33h1v1h-1zM95 33h1v1h-1zM102 33h1v1h-1zM103 33h1v1h-1zM110 33h1v1h-1zM111 33h1v1h-1zM34 50h1v1h-1zM38 50h1v1h-1zM39 50h1v1h-1zM40 50h1v1h-1zM49 50h1v1h-1zM50 50h1v1h-1zM51 50h1v1h-1zM52 50h1v1h-1zM55 50h1v1h-1zM56 50h1v1h-1zM57 50h1v1h-1zM58 50h1v1h-1zM59 50h1v1h-1zM62 50h1v1h-1zM63 50h1v1h-1zM64 50h1v1h-1zM67 50h1v1h-1zM71 50h1v1h-1zM74 50h1v1h-1zM75 50h1v1h-1zM76 50h1v1h-1zM79 50h1v1h-1zM80 50h1v1h-1zM81 50h1v1h-1zM82 50h1v1h-1zM85 50h1v1h-1zM86 50h1v1h-1zM87 50h1v1h-1zM88 50h1v1h-1zM89 50h1v1h-1zM91 50h1v1h-1zM92 50h1v1h-1zM93 50h1v1h-1zM33 51h1v1h-1zM34 51h1v1h-1zM37 51h1v1h-1zM41 51h1v1h-1zM49 51h1v1h-1zM53 51h1v1h-1zM55 51h1v1h-1zM61 51h1v1h-1zM65 51h1v1h-1zM67 51h1v1h-1zM71 51h1v1h-1zM75 51h1v1h-1zM79 51h1v1h-1zM83 51h1v1h-1zM85 51h1v1h-1zM91 51h1v1h-1zM94 51h1v1h-1zM32 52h1v1h-1zM34 52h1v1h-1zM37 52h1v1h-1zM49 52h1v1h-1zM53 52h1v1h-1zM55 52h1v1h-1zM61 52h1v1h-1zM65 52h1v1h-1zM67 52h1v1h-1zM71 52h1v1h-1zM75 52h1v1h-1zM79 52h1v1h-1zM83 52h1v1h-1zM85 52h1v1h-1zM91 52h1v1h-1zM95 52h1v1h-1zM31 53h1v1h-1zM34 53h1v1h-1zM37 53h1v1h-1zM39 53h1v1h-1zM40 53h1v1h-1zM41 53h1v1h-1zM49 53h1v1h-1zM50 53h1v1h-1zM51 53h1v1h-1zM52 53h1v1h-1zM55 53h1v1h-1zM56 53h1v1h-1zM57 53h1v1h-1zM58 53h1v1h-1zM61 53h1v1h-1zM65 53h1v1h-1zM67 53h1v1h-1zM71 53h1v1h-1zM75 53h1v1h-1zM79 53h1v1h-1zM80 53h1v1h-1zM81 53h1v1h-1zM82 53h1v1h-1zM85 53h1v1h-1zM86 53h1v1h-1zM87 53h1v1h-1zM88 53h1v1h-1zM91 53h1v1h-1zM95 53h1v1h-1zM31 54h1v1h-1zM32 54h1v1h-1zM33 54h1v1h-1zM34 54h1v1h-1zM35 54h1v1h-1zM37 54h1v1h-1zM41 54h1v1h-1zM49 54h1v1h-1zM51 54h1v1h-1zM55 54h1v1h-1zM61 54h1v1h-1zM63 54h1v1h-1zM65 54h1v1h-1zM67 54h1v1h-1zM71 54h1v1h-1zM75 54h1v1h-1zM79 54h1v1h-1zM81 54h1v1h-1zM85 54h1v1h-1zM91 54h1v1h-1zM95 54h1v1h-1zM34 55h1v1h-1zM37 55h1v1h-1zM41 55h1v1h-1zM49 55h1v1h-1zM52 55h1v1h-1zM55 55h1v1h-1zM61 55h1v1h-1zM64 55h1v1h-1zM67 55h1v1h-1zM71 55h1v1h-1zM75 55h1v1h-1zM79 55h1v1h-1zM82 55h1v1h-1zM85 55h1v1h-1zM91 55h1v1h-1zM94 55h1v1h-1zM34 56h1v1h-1zM38 56h1v1h-1zM39 56h1v1h-1zM40 56h1v1h-1zM41 56h1v1h-1zM49 56h1v1h-1zM53 56h1v1h-1zM55 56h1v1h-1zM56 56h1v1h-1zM57 56h1v1h-1zM58 56h1v1h-1zM59 56h1v1h-1zM62 56h1v1h-1zM63 56h1v1h-1zM65 56h1v1h-1zM68 56h1v1h-1zM69 56h1v1h-1zM70 56h1v1h-1zM74 56h1v1h-1zM75 56h1v1h-1zM76 56h1v1h-1zM79 56h1v1h-1zM83 56h1v1h-1zM85 56h1v1h-1zM86 56h1v1h-1zM87 56h1v1h-1zM88 56h1v1h-1zM89 56h1v1h-1zM91 56h1v1h-1zM92 56h1v1h-1zM93 56h1v1h-1z" fill="#07151c" shape-rendering="crispEdges"/>
</svg>
